<svg xmlns="http://www.w3.org/2000/svg" xmlns:xlink="http://www.w3.org/1999/xlink" width="113.538" height="61.405" viewBox="0 0 113.538 61.405">
  <defs>
    <clipPath id="clip-path">
      <rect width="113.538" height="61.405" fill="none"/>
    </clipPath>
  </defs>
  <g id="Symbol_2_1" data-name="Symbol 2 – 1" clip-path="url(#clip-path)">
    <path id="Path_440" data-name="Path 440" d="M52.157,51.958c-1.009-1.35-5.72-9.447-6.393-10.459-.673-1.35-3.028-5.4-3.028-5.4l1.009-1.012s2.019,1.012,3.7,2.024c1.346.675,10.095,6.748,11.777,8.1a26.807,26.807,0,0,1-7.066,6.748m-21.2,3.037c.673-1.687,3.028-9.447,3.7-11.471,1.009-2.362,2.355-6.073,2.355-6.073a3.473,3.473,0,0,0,1.346.337,52.021,52.021,0,0,1,.673,6.41c.336,2.024.673,10.459,1.009,12.146H38.36a56.921,56.921,0,0,1-7.4-1.35M15.142,39.475c1.682-.675,10.768-3.711,12.45-4.386a22.708,22.708,0,0,1,5.047-1.35,2.634,2.634,0,0,0,1.009,1.35L28.6,40.15c-1.346,1.35-7.066,6.748-8.076,8.1a34.242,34.242,0,0,1-5.384-8.772M13.8,28c1.682.337,10.095,1.35,12.45,1.687A27.667,27.667,0,0,1,32.3,31.04v1.012a50.253,50.253,0,0,1-5.384,2.024c-2.019.675-10.431,3.374-12.114,4.049A26.377,26.377,0,0,1,13.8,30.7V28m3.7-10.8c1.682,1.012,10.095,6.748,11.441,7.76L32.976,28a1.179,1.179,0,0,0-.336.675s-3.365-.337-6.057-.675c-2.355,0-10.431-1.35-12.45-1.687a21.285,21.285,0,0,1,3.365-9.11M35.332,36.776s-.673,3.037-1.682,6.41c-1.009,2.7-3.365,9.784-4.038,11.471a26.105,26.105,0,0,1-8.076-5.4c1.346-2.024,7.4-7.76,8.076-8.772,1.009-1.012,4.711-4.386,4.711-4.386a4.839,4.839,0,0,1,1.009.675M20.863,13.158c4.711.337,7.4.675,7.4.675l1.346,2.362a13.781,13.781,0,0,1-.673,2.362c0,.675.336.675.336,1.012l.337.337v.675l.336-.337v.337l3.028,1.35s1.009,2.362,1.346,3.037a4.855,4.855,0,0,1-.673,1.012s-2.692-1.687-4.374-2.7c-1.009-.675-9.422-6.41-11.1-7.423a18.536,18.536,0,0,1,2.355-3.037l.336.337M36,7.085l-6.393-.337a40.6,40.6,0,0,1,6.057-1.687Zm5.047,36.776c-.336-2.362-.673-6.073-.673-6.41a4.788,4.788,0,0,0,1.346-.675s2.355,3.374,3.365,5.061c.673,1.35,5.047,9.11,6.057,10.8a20.758,20.758,0,0,1-9.085,3.037c-.336-1.35-1.009-9.784-1.009-11.809M46.773,6.41l-.336.675-9.422-.337V5.061H38.7a21.4,21.4,0,0,1,8.076,1.35m1.009,1.012.336-.337c.337,0,.673.337,1.009.337H47.782m1.346,25.3,7.066,1.012a.33.33,0,0,0,.336.337c.336.337.673.337,1.009.675a.33.33,0,0,0,.337-.337l5.047,2.7A32.076,32.076,0,0,1,59.9,44.2c-1.346-1.012-10.768-7.085-11.777-8.1-1.346-1.012-3.365-2.362-3.365-2.362l.336-1.012c0-.337,1.682-.337,4.038,0m1.682-1.35a1.174,1.174,0,0,0,.673-.337L53.5,32.052a25.915,25.915,0,0,0-3.365-.337A43.619,43.619,0,0,1,45.09,30.7V29.691a5.2,5.2,0,0,1,2.019-1.012l2.355,1.35V30.7a2.548,2.548,0,0,0,1.346.675m11.1-7.085h0a.33.33,0,0,1-.336.337v.337a1.174,1.174,0,0,1-.673.337l-.336-.337a.468.468,0,0,0,0-.675l1.346-.675v.675m0-2.362c-1.009.337-3.365,1.35-4.038,1.687a1.046,1.046,0,0,0-.336-.675,12.579,12.579,0,0,0-2.355-2.024h-.673a1.179,1.179,0,0,0,.336-.675c0-.337-1.009-1.012-1.009-1.012H53.5l-1.009-1.012.673-1.012s4.374.337,6.73.337a10.469,10.469,0,0,1,2.019,4.386m51.147,32.39a5.018,5.018,0,0,0-2.355-1.012,13.42,13.42,0,0,1-1.346-1.012,2.548,2.548,0,0,0-1.346-.675c-.336,0-.673.675-.673,1.012s.673.675.673.675a1.245,1.245,0,0,1-1.009.675l-2.019-1.012v-2.7c0-.337-1.682-.337-1.682,0V52.3l-5.72-3.374v-.675a1.519,1.519,0,0,1,1.009-1.012h.337l1.346,1.012a1.2,1.2,0,0,0,.673,1.012c.336,0,.336-.675,0-1.012s-1.682-1.012-2.019-1.35c-.337,0-.337-.337-.673,0-.336,0-1.346,1.35-1.346,1.35a20.607,20.607,0,0,1-2.019-1.35c-.337-.337-1.009-.675-1.009-.337L77.73,36.438a1.046,1.046,0,0,0-.337-.675c-.336-.337-1.346-1.012-1.682-1.35h-.673l-.337-.337a7.379,7.379,0,0,0,1.009-1.687v-.675c-.336-.337-1.682-1.35-1.682-1.35a1.174,1.174,0,0,0-.673-.337c-.336,0-1.009.337-1.009.675.336.337,1.009,0,1.346.337.337,0,1.346,1.012,1.346,1.012v.675c0,.337-1.009,1.35-1.009,1.35a42.875,42.875,0,0,0-4.038-2.362s-.337-.675-.673-.675c-.336-.675-.673-.675-1.009-1.012a30.748,30.748,0,0,0-2.692-12.484,1.174,1.174,0,0,0,.673-.337,16.874,16.874,0,0,0,1.682-2.362c.673-.337,1.009,0,1.682.337s1.346,0,1.346-1.35-.673-2.024-1.346-1.687c-.336.337-1.346.675-1.682,0a16.47,16.47,0,0,1-1.009-2.362c0-.675-.673-1.687-2.692-1.687a51.212,51.212,0,0,1-6.057-.337A28.3,28.3,0,0,0,38.7,0,29.087,29.087,0,0,0,20.526,6.41L.673,5.4C.336,5.4,0,6.41,0,8.1s0,3.037.336,3.037,8.076.675,14.469,1.35A31.13,31.13,0,0,0,8.749,30.7c0,16.87,13.46,30.7,29.612,30.7a29.993,29.993,0,0,0,28.6-21.593l6.73,3.711-.336.675c0,.337.673.337.673.337l.337-.675S85.133,49.6,87.489,50.609c2.355,1.35,9.758,5.4,12.114,6.41s5.72,2.362,7.739,2.362,4.711,0,5.047-.337a5.045,5.045,0,0,0,1.009-2.362,2.562,2.562,0,0,0-.337-2.362" fill="#fff"/>
  </g>
</svg>
